<svg xmlns="http://www.w3.org/2000/svg" viewBox="0 0 300 60" fill="currentColor">
  <path d="M30 15c-8.3 0-15 6.7-15 15s6.7 15 15 15 15-6.7 15-15-6.7-15-15-15zm0 22c-3.9 0-7-3.1-7-7s3.1-7 7-7 7 3.1 7 7-3.1 7-7 7z"/>
  <path d="M70 15h-8v30h8V33h10v12h8V15h-8v10H70V15zM118 15c-8.3 0-15 6.7-15 15s6.7 15 15 15 15-6.7 15-15-6.7-15-15-15zm0 22c-3.9 0-7-3.1-7-7s3.1-7 7-7 7 3.1 7 7-3.1 7-7 7zM166 15c-8.3 0-15 6.7-15 15s6.7 15 15 15 15-6.7 15-15-6.7-15-15-15zm0 22c-3.9 0-7-3.1-7-7s3.1-7 7-7 7 3.1 7 7-3.1 7-7 7zM202 22h8v-7h-20v7h6v23h6V22zM238 30c0-8.3-6.7-15-15-15s-15 6.7-15 15h8c0-3.9 3.1-7 7-7s7 3.1 7 7-3.1 7-7 7h-8v8h23v-7h-12c5-1.7 8-6.3 8-11z"/>
  <path d="M270 15h-8v20c0 3.9-3.1 7-7 7s-7-3.1-7-7V15h-8v20c0 8.3 6.7 15 15 15s15-6.7 15-15V15z"/>
</svg>
