<svg xmlns="http://www.w3.org/2000/svg" viewBox="0 0 300 60" fill="currentColor">
  <path d="M150 5c-38.7 0-70 31.3-70 70h20c0-27.6 22.4-50 50-50s50 22.4 50 50h20c0-38.7-31.3-70-70-70z" transform="translate(-80 -20)"/>
  <path d="M42 25h-8v30h8V40h12v15h8V25h-8v10H42V25zM84 25h-8v13l-8-13h-8v30h8V42l8 13h8V25zM120 25h-8v30h8V40h12v15h8V25h-8v10h-12V25zM156 25h-12v30h12c8 0 14-6 14-15s-6-15-14-15zm-4 23v-16h4c4 0 6 3 6 8s-2 8-6 8h-4zM208 25h-8l-10 30h8l2-6h8l2 6h8l-10-30zm-6 18l2-8 2 8h-4zM228 25h-8v30h8V25zM256 32h8v-7h-24v7h8v23h8V32z"/>
</svg>
