<svg xmlns="http://www.w3.org/2000/svg" viewBox="0 0 320 60" fill="currentColor">
  <path d="M40 15h-8v18l-10-18h-8v30h8V27l10 18h8V15zM90 15h-8l-10 30h8l2-6h8l2 6h8l-10-30zm-6 18l2-8 2 8h-4zM110 22h8v-7H98v7h6v23h6V22zM130 15h-8v30h8V15zM170 15c-8.3 0-15 6.7-15 15s6.7 15 15 15 15-6.7 15-15-6.7-15-15-15zm0 22c-3.9 0-7-3.1-7-7s3.1-7 7-7 7 3.1 7 7-3.1 7-7 7zM220 15h-8v18l-10-18h-8v30h8V27l10 18h8V15zM270 15h-8v9l-8-9h-9l10 12-10 18h9l6-11 6 11h9l-10-18 10-12h-5z"/>
  <path d="M310 15h-8v30h8V15z"/>
  <path d="M295 15h-8v10h-6V15h-8v30h8V33h6v12h8V15z"/>
</svg>
