<svg xmlns="http://www.w3.org/2000/svg" viewBox="0 0 300 40" fill="currentColor">
  <path d="M280.3 21.8c0 4.4-3.5 6.5-7.4 6.5-4.8 0-7.1-2.8-7.1-6.5v-13h-5.7v13.3c0 7.5 5.1 11.4 12.8 11.4 7.6 0 13-4 13-11.4V8.8h-5.6v13z"/>
  <path d="M190.3 8.8h-14.5v4.8h4.4v18.8h5.7V13.6h4.4v-4.8zM244.3 8.8h-14.5v4.8h4.4v18.8h5.7V13.6h4.4v-4.8zM215.3 8.8h-6.1l-8.3 23.6h5.9l1.4-4.4h8.1l1.5 4.4h6l-8.5-23.6zm-5.6 14.8l2.8-8.6 2.8 8.6h-5.6z"/>
  <path d="M298.3 8.8h-6.1l-8.3 23.6h5.9l1.4-4.4h8.1l1.5 4.4h6l-8.5-23.6zm-5.6 14.8l2.8-8.6 2.8 8.6h-5.6zM157.3 8.8h-5.7l-6.9 14.4-6.8-14.4h-5.9l9.7 19.4v4.2h5.9v-4.2l9.7-19.4z"/>
  <path d="M107.8 8.8h-20.6v4.8h7.4v18.8h5.7V13.6h7.5v-4.8zM68.3 8.8h-5.7l-6.9 14.4-6.8-14.4h-5.9l9.7 19.4v4.2h5.9v-4.2l9.7-19.4z"/>
  <path d="M23.8 15.8c3.2-1.1 5.5-3.3 5.5-6.7 0-4.8-4.2-8.3-10.4-8.3H1v32.4h18.2c6.8 0 11.3-3.9 11.3-9.3 0-3.9-2.8-7-6.7-8.1zM7.7 5.5h10.5c3.4 0 5.4 1.8 5.4 4.4s-2 4.4-5.4 4.4H7.7V5.5zm11.1 23.2H7.7V19h11.1c3.9 0 6.1 2 6.1 4.8s-2.2 4.9-6.1 4.9z"/>
  <path d="M180.8 8.8h-5.7v23.6h5.7V8.8z"/>
</svg>
