<svg xmlns="http://www.w3.org/2000/svg" viewBox="0 0 240 60" fill="currentColor">
  <path d="M40 30c0-8.3 6.7-15 15-15s15 6.7 15 15h-8c0-3.9-3.1-7-7-7s-7 3.1-7 7 3.1 7 7 7h8v8H40v-7h12c-5-1.7-12-6.3-12-11zM110 30c0 8.3-6.7 15-15 15h-8v-8h8c3.9 0 7-3.1 7-7s-3.1-7-7-7-7 3.1-7 7v8h-8v-8c0-8.3 6.7-15 15-15s15 6.7 15 15zM150 15h-8v20c0 5.5-4.5 10-10 10V37c2.2 0 4-1.8 4-4V15h-4v-7h18v7zM190 15h-8l-10 30h8l2-6h8l2 6h8l-10-30zm-6 18l2-8 2 8h-4zM230 15h-8v11c0 2.2-1.8 4-4 4h-8v-8h8v-7h-18v30h8V33h10c5.5 0 10-4.5 10-10V15z"/>
</svg>
