<svg xmlns="http://www.w3.org/2000/svg" viewBox="0 0 280 60" fill="currentColor">
  <path d="M40 15c-8.3 0-15 6.7-15 15s6.7 15 15 15 15-6.7 15-15-6.7-15-15-15zm0 22c-3.9 0-7-3.1-7-7s3.1-7 7-7 7 3.1 7 7-3.1 7-7 7z"/>
  <path d="M75 22h8v-7H63v7h6v23h6V22zM95 35c0 5.5 4.5 10 10 10s10-4.5 10-10V22h-6v13c0 2.2-1.8 4-4 4s-4-1.8-4-4V22h-6v13zM145 15c-8.3 0-15 6.7-15 15s6.7 15 15 15h12V15h-12zm5 22h-5c-3.9 0-7-3.1-7-7s3.1-7 7-7h5v14zM185 15h-20v30h20v-7h-14v-5h12v-6h-12v-5h14v-7zM220 25h-6V15h-6v10h-6v6h6v14h6V31h6v-6z"/>
</svg>
