<svg xmlns="http://www.w3.org/2000/svg" viewBox="0 0 320 60" fill="currentColor">
  <path d="M30 22h8v-7H18v7h6v23h6V22zM70 15h-20v30h20v-7H56v-5h12v-6H56v-5h14v-7zM110 30c0 8.3-6.7 15-15 15s-15-6.7-15-15h8c0 3.9 3.1 7 7 7s7-3.1 7-7-3.1-7-7-7h-8v-8h23v7H98c5 1.7 12 6.3 12 11zM150 15h-8v30h8V33h10v12h8V15h-8v10h-10V15zM188 30c0-8.3 6.7-15 15-15s15 6.7 15 15h-8c0-3.9-3.1-7-7-7s-7 3.1-7 7 3.1 7 7 7h8v8h-23v-7h12c-5-1.7-12-6.3-12-11zM260 15h-8v18l-10-18h-8v30h8V27l10 18h8V15zM280 15h-8v30h8V15zM310 22h8v-7h-20v7h6v23h6V22z"/>
</svg>
